Genre:Comedy
Language:English
IMDb:http://www.imdb.com/title/tt1276434/
Source:1080i.HDTV.H.264.DD2.0-jTV


Format : Matroska
File size : 1.58 GiB
Duration : 1h 36mn
Overall bit rate : 2 343 Kbps


Video
Codec ID : V_MPEG4/ISO/AVC
Duration : 1h 36mn
Bit rate : 1 999 Kbps
Width : 1 280 pixels
Height : 720 pixels
Display aspect ratio : 16:9
Frame rate mode : Variable
Frame rate : 25.000 fps
Color space : YUV
Chroma subsampling : 4:2:0
Bit depth : 8 bits
Scan type : Progressive
Bits/(Pixel*Frame) : 0.087
Stream size : 1.29 GiB (82%)
Writing library : x264 


Audio
ID : 2
Format : AC-3
Format/Info : Audio Coding 3
Mode extension : CM (complete main)
Codec ID : A_AC3
Duration : 1h 36mn
Bit rate mode : Constant
Bit rate : 384 Kbps
Channel(s) : 2 channels
Channel positions : Front: L R
Sampling rate : 48.0 KHz
Bit depth : 16 bits
Video delay : -1mn 5s
Stream size : 265 MiB (16%)
Language : English


Plot:
Van Wilder starts his freshman year at Coolidge College and embarks on an adventure to land the campus hottie and liberate his school from sexual oppression and party dysfunction.





================================== 
http://thepiratebay.org/user/hiest
==================================





Screen Shots:
 
http://rapidhdd.com/images/256781vlcsnap-2010-12-19-08h48m08s233.png
 
http://www.rapidhdd.com/images/837051vlcsnap-2010-12-19-08h48m23s130.png
 
http://www.rapidhdd.com/images/592136vlcsnap-2010-12-19-08h48m35s255.png
 
http://www.rapidhdd.com/images/964808vlcsnap-2010-12-19-08h54m59s239.png
 
http://www.rapidhdd.com/images/962725vlcsnap-2010-12-19-08h55m54s27.png